<?xml version="1.0" standalone="no"?>
<!DOCTYPE svg PUBLIC "-//W3C//DTD SVG 20010904//EN"
 "http://www.w3.org/TR/2001/REC-SVG-20010904/DTD/svg10.dtd">
<svg version="1.0" xmlns="http://www.w3.org/2000/svg"
 width="700.000000pt" height="700.000000pt" viewBox="0 0 700.000000 700.000000"
 preserveAspectRatio="xMidYMid meet">
<metadata>
Created by potrace 1.14, written by Peter Selinger 2001-2017
</metadata>
<g transform="translate(0.000000,700.000000) scale(0.100000,-0.100000)"
fill="#000000" stroke="none">
<path d="M1400 5362 c1 -876 2 -943 20 -1022 24 -113 44 -169 92 -264 120
-241 346 -433 604 -517 l72 -23 0 -1371 c1 -753 1 -1391 1 -1417 l1 -48 260 0
c241 0 260 1 261 18 0 9 1 647 2 1416 l2 1400 79 28 c364 127 618 422 690 798
12 61 15 244 15 1008 l2 932 -263 -2 -263 -3 0 -870 0 -870 -132 -3 -131 -3 0
873 0 873 -261 3 c-205 2 -261 0 -262 -10 0 -7 0 -401 -1 -875 l0 -863 -128 0
c-113 0 -128 2 -132 18 -2 9 -4 403 -3 875 l0 857 -263 0 -262 0 0 -938z"/>
<path d="M5457 6294 c-1 -1 -24 -4 -52 -7 -151 -18 -266 -53 -420 -127 -189
-91 -380 -252 -520 -438 -104 -138 -203 -355 -234 -512 -5 -30 -13 -71 -17
-90 -4 -19 -9 -470 -11 -1002 l-4 -968 438 -2 438 -3 0 -1223 0 -1222 262 0
263 0 0 2800 0 2801 -71 -3 c-38 -1 -71 -3 -72 -4z"/>
</g>
</svg>
